<svg viewBox="0 0 240 120" fill="none" xmlns="http://www.w3.org/2000/svg">
<path d="M4.61533 120C19.4823 105.255 62.7454 75.7642 116.861 75.7642H238.399V120H4.61533Z" fill="url(#paint0_radial_518_12027)"/>
<path d="M4.61533 120C19.4823 105.255 62.7454 75.7642 116.861 75.7642H238.399V120H4.61533Z" fill="url(#paint1_radial_518_12027)"/>
<path d="M4.61533 120C19.4823 105.255 62.7454 75.7642 116.861 75.7642H238.399V120H4.61533Z" fill="url(#paint2_radial_518_12027)"/>
<path d="M20.1315 120C34.0118 105.255 74.4035 75.7642 124.928 75.7642H238.399V120H20.1315Z" fill="url(#paint3_radial_518_12027)"/>
<path d="M20.1315 120C34.0118 105.255 74.4035 75.7642 124.928 75.7642H238.399V120H20.1315Z" fill="url(#paint4_radial_518_12027)"/>
<path d="M20.1315 120C34.0118 105.255 74.4035 75.7642 124.928 75.7642H238.399V120H20.1315Z" fill="url(#paint5_linear_518_12027)"/>
<path d="M20.1315 120C34.0118 105.255 74.4035 75.7642 124.928 75.7642H238.399V120H20.1315Z" fill="url(#paint6_linear_518_12027)"/>
<path d="M33.7465 119.999C46.8626 103.469 85.0305 70.4097 132.773 70.4097H239.997V119.999H33.7465Z" fill="url(#paint7_linear_518_12027)"/>
<path d="M33.7465 119.999C46.8626 103.469 85.0305 70.4097 132.773 70.4097H239.997V119.999H33.7465Z" fill="url(#paint8_radial_518_12027)"/>
<path d="M33.7465 119.999C46.8626 103.469 85.0305 70.4097 132.773 70.4097H239.997V119.999H33.7465Z" fill="url(#paint9_radial_518_12027)"/>
<path d="M123.594 70.0163C130.645 66.1454 163.509 58.1243 239.997 58.1243V111.274L137.618 77.7762L123.594 70.0163Z" fill="url(#paint10_radial_518_12027)"/>
<path d="M202.196 100.952C221.881 112.498 231.597 109.821 239.997 119.133V107.16C234.537 106.273 231.765 109.377 218.997 98.7353C203.036 85.4327 183.028 92.3939 169.855 83.2156C149.419 68.9757 140.119 80.694 124.538 70.2997C123.992 69.935 123.234 70.3117 123.234 70.9663V72.7705C123.234 73.0402 123.304 73.3116 123.443 73.5431C129.615 83.8186 147.104 77.6839 163.975 89.4235C181.041 101.298 191.426 94.6357 202.196 100.952Z" fill="url(#paint11_linear_518_12027)"/>
<path d="M174.401 119.999H135.628C121.526 113.379 101.813 101.236 105.499 81.9537L174.42 115.567C174.435 117.157 174.428 118.631 174.401 119.999Z" fill="url(#paint12_linear_518_12027)"/>
<path d="M174.489 115.698C114.931 115.698 98.0139 88.7404 107.98 76.5282C109.404 79.331 130.759 88.7404 145.471 95.7474C160.182 102.754 164.523 109.892 174.489 115.698Z" fill="url(#paint13_linear_518_12027)"/>
<path d="M106.793 84.1354C107.268 80.5318 113.912 81.1324 119.607 84.1354C126.79 88.5606 162.382 102.961 162.382 111.563C162.382 112.464 150.718 112.573 145.945 111.563C108.098 103.555 106.319 87.739 106.793 84.1354Z" fill="url(#paint14_radial_518_12027)"/>
<path d="M106.793 84.1354C107.268 80.5318 113.912 81.1324 119.607 84.1354C126.79 88.5606 162.382 102.961 162.382 111.563C162.382 112.464 150.718 112.573 145.945 111.563C108.098 103.555 106.319 87.739 106.793 84.1354Z" fill="url(#paint15_radial_518_12027)"/>
<path d="M106.793 84.1354C107.268 80.5318 113.912 81.1324 119.607 84.1354C126.79 88.5606 162.382 102.961 162.382 111.563C162.382 112.464 150.718 112.573 145.945 111.563C108.098 103.555 106.319 87.739 106.793 84.1354Z" fill="url(#paint16_radial_518_12027)"/>
<path d="M106.793 84.1354C107.268 80.5318 113.912 81.1324 119.607 84.1354C126.79 88.5606 162.382 102.961 162.382 111.563C162.382 112.464 150.718 112.573 145.945 111.563C108.098 103.555 106.319 87.739 106.793 84.1354Z" fill="url(#paint17_radial_518_12027)"/>
<path fill-rule="evenodd" clip-rule="evenodd" d="M135.088 108.778C129.74 107.127 125.385 105.303 121.843 103.412L152.456 101.336C155.404 103.211 157.933 105.074 159.701 106.84L135.088 108.778Z" fill="url(#paint18_linear_518_12027)"/>
<path fill-rule="evenodd" clip-rule="evenodd" d="M109.53 93.1303C108.577 91.7087 107.933 90.3677 107.506 89.1615L125.751 87.3428C126.841 87.8768 128.018 88.4474 129.259 89.0489C130.17 89.4902 131.115 89.9482 132.085 90.4205L109.53 93.1303Z" fill="url(#paint19_linear_518_12027)"/>
<path d="M61.5085 46.5639C63.0262 59.4632 62.1409 78.3385 61.5085 86.1638C65.8717 89.9577 69.3335 87.7446 70.519 86.1638C65.8265 71.6171 67.3029 44.6258 67.4364 39.6879C67.6261 32.6691 81.2685 33.6012 88.066 34.9446V33.7685C81.6163 29.9741 69.2671 28.9891 62.7498 34.9444C54.6877 23.3251 51.4377 44.439 40.0559 32.5829L38.3961 33.7686C46.4582 45.1504 59.6114 30.4396 61.5085 46.5639Z" fill="url(#paint20_linear_518_12027)"/>
<path d="M67.6518 31.6124C71.5336 29.8871 80.7206 28.5923 88.1394 32.9059C90.7274 34.2003 88.7864 52.1001 86.4142 51.8845C84.5163 51.7119 83.8981 42.4673 83.8262 37.8665C83.6106 43.0424 82.7479 53.3509 81.0226 53.1784C79.2974 53.0059 77.8596 42.8986 77.3564 37.8665C77.2126 41.7484 76.3644 49.5122 74.1215 49.5122C72.0694 49.5122 71.5267 38.9339 71.5267 38.9339C71.5267 38.9339 70.9791 51.8845 69.377 51.8845C67.2204 51.8845 63.7701 33.3377 67.6518 31.6124Z" fill="url(#paint21_radial_518_12027)"/>
<path d="M67.6518 31.6124C71.5336 29.8871 80.7206 28.5923 88.1394 32.9059C90.7274 34.2003 88.7864 52.1001 86.4142 51.8845C84.5163 51.7119 83.8981 42.4673 83.8262 37.8665C83.6106 43.0424 82.7479 53.3509 81.0226 53.1784C79.2974 53.0059 77.8596 42.8986 77.3564 37.8665C77.2126 41.7484 76.3644 49.5122 74.1215 49.5122C72.0694 49.5122 71.5267 38.9339 71.5267 38.9339C71.5267 38.9339 70.9791 51.8845 69.377 51.8845C67.2204 51.8845 63.7701 33.3377 67.6518 31.6124Z" fill="url(#paint22_radial_518_12027)"/>
<path d="M67.6518 31.6124C71.5336 29.8871 80.7206 28.5923 88.1394 32.9059C90.7274 34.2003 88.7864 52.1001 86.4142 51.8845C84.5163 51.7119 83.8981 42.4673 83.8262 37.8665C83.6106 43.0424 82.7479 53.3509 81.0226 53.1784C79.2974 53.0059 77.8596 42.8986 77.3564 37.8665C77.2126 41.7484 76.3644 49.5122 74.1215 49.5122C72.0694 49.5122 71.5267 38.9339 71.5267 38.9339C71.5267 38.9339 70.9791 51.8845 69.377 51.8845C67.2204 51.8845 63.7701 33.3377 67.6518 31.6124Z" fill="url(#paint23_radial_518_12027)"/>
<path d="M67.6518 31.6124C71.5336 29.8871 80.7206 28.5923 88.1394 32.9059C90.7274 34.2003 88.7864 52.1001 86.4142 51.8845C84.5163 51.7119 83.8981 42.4673 83.8262 37.8665C83.6106 43.0424 82.7479 53.3509 81.0226 53.1784C79.2974 53.0059 77.8596 42.8986 77.3564 37.8665C77.2126 41.7484 76.3644 49.5122 74.1215 49.5122C72.0694 49.5122 71.5267 38.9339 71.5267 38.9339C71.5267 38.9339 70.9791 51.8845 69.377 51.8845C67.2204 51.8845 63.7701 33.3377 67.6518 31.6124Z" fill="url(#paint24_radial_518_12027)"/>
<path d="M67.6518 31.6124C71.5336 29.8871 80.7206 28.5923 88.1394 32.9059C90.7274 34.2003 88.7864 52.1001 86.4142 51.8845C84.5163 51.7119 83.8981 42.4673 83.8262 37.8665C83.6106 43.0424 82.7479 53.3509 81.0226 53.1784C79.2974 53.0059 77.8596 42.8986 77.3564 37.8665C77.2126 41.7484 76.3644 49.5122 74.1215 49.5122C72.0694 49.5122 71.5267 38.9339 71.5267 38.9339C71.5267 38.9339 70.9791 51.8845 69.377 51.8845C67.2204 51.8845 63.7701 33.3377 67.6518 31.6124Z" fill="url(#paint25_radial_518_12027)"/>
<path d="M38.097 30.0587C42.2992 27.9451 52.2446 26.359 60.2758 31.6433C63.0775 33.229 60.9763 55.1573 58.4082 54.8931C56.3537 54.6818 55.6845 43.3565 55.6067 37.7203C55.3732 44.0611 54.4393 56.6897 52.5716 56.4783C50.7039 56.2669 49.1475 43.8849 48.6027 37.7203C48.4471 42.4759 47.5288 51.987 45.1008 51.987C42.8792 51.987 42.2917 39.0279 42.2917 39.0279C42.2917 39.0279 41.6989 54.8931 39.9646 54.8931C37.6299 54.8931 33.8948 32.1723 38.097 30.0587Z" fill="url(#paint26_radial_518_12027)"/>
<path d="M38.097 30.0587C42.2992 27.9451 52.2446 26.359 60.2758 31.6433C63.0775 33.229 60.9763 55.1573 58.4082 54.8931C56.3537 54.6818 55.6845 43.3565 55.6067 37.7203C55.3732 44.0611 54.4393 56.6897 52.5716 56.4783C50.7039 56.2669 49.1475 43.8849 48.6027 37.7203C48.4471 42.4759 47.5288 51.987 45.1008 51.987C42.8792 51.987 42.2917 39.0279 42.2917 39.0279C42.2917 39.0279 41.6989 54.8931 39.9646 54.8931C37.6299 54.8931 33.8948 32.1723 38.097 30.0587Z" fill="url(#paint27_radial_518_12027)"/>
<path d="M38.097 30.0587C42.2992 27.9451 52.2446 26.359 60.2758 31.6433C63.0775 33.229 60.9763 55.1573 58.4082 54.8931C56.3537 54.6818 55.6845 43.3565 55.6067 37.7203C55.3732 44.0611 54.4393 56.6897 52.5716 56.4783C50.7039 56.2669 49.1475 43.8849 48.6027 37.7203C48.4471 42.4759 47.5288 51.987 45.1008 51.987C42.8792 51.987 42.2917 39.0279 42.2917 39.0279C42.2917 39.0279 41.6989 54.8931 39.9646 54.8931C37.6299 54.8931 33.8948 32.1723 38.097 30.0587Z" fill="url(#paint28_radial_518_12027)"/>
<path d="M38.097 30.0587C42.2992 27.9451 52.2446 26.359 60.2758 31.6433C63.0775 33.229 60.9763 55.1573 58.4082 54.8931C56.3537 54.6818 55.6845 43.3565 55.6067 37.7203C55.3732 44.0611 54.4393 56.6897 52.5716 56.4783C50.7039 56.2669 49.1475 43.8849 48.6027 37.7203C48.4471 42.4759 47.5288 51.987 45.1008 51.987C42.8792 51.987 42.2917 39.0279 42.2917 39.0279C42.2917 39.0279 41.6989 54.8931 39.9646 54.8931C37.6299 54.8931 33.8948 32.1723 38.097 30.0587Z" fill="url(#paint29_radial_518_12027)"/>
<path d="M38.097 30.0587C42.2992 27.9451 52.2446 26.359 60.2758 31.6433C63.0775 33.229 60.9763 55.1573 58.4082 54.8931C56.3537 54.6818 55.6845 43.3565 55.6067 37.7203C55.3732 44.0611 54.4393 56.6897 52.5716 56.4783C50.7039 56.2669 49.1475 43.8849 48.6027 37.7203C48.4471 42.4759 47.5288 51.987 45.1008 51.987C42.8792 51.987 42.2917 39.0279 42.2917 39.0279C42.2917 39.0279 41.6989 54.8931 39.9646 54.8931C37.6299 54.8931 33.8948 32.1723 38.097 30.0587Z" fill="url(#paint30_radial_518_12027)"/>
<path fill-rule="evenodd" clip-rule="evenodd" d="M93.9644 111.233C93.6909 110.692 93.9095 110.034 94.4529 109.765L139.764 87.2777C140.308 87.008 140.97 87.2283 141.243 87.7697C141.517 88.311 141.298 88.9685 140.755 89.2382L95.4436 111.725C94.9003 111.995 94.238 111.774 93.9644 111.233Z" fill="url(#paint31_linear_518_12027)"/>
<path fill-rule="evenodd" clip-rule="evenodd" d="M93.9644 111.233C93.6909 110.692 93.9095 110.034 94.4529 109.765L139.764 87.2777C140.308 87.008 140.97 87.2283 141.243 87.7697C141.517 88.311 141.298 88.9685 140.755 89.2382L95.4436 111.725C94.9003 111.995 94.238 111.774 93.9644 111.233Z" fill="url(#paint32_linear_518_12027)"/>
<path d="M85.0207 110.29C83.9297 110.823 83.9059 112.363 84.9755 112.938L91.1547 116.255C91.557 116.471 92.0325 116.492 92.451 116.31C94.8194 115.276 102.869 111.76 104.957 110.788C107.414 109.646 109.876 105.229 109.447 104.312C109.019 103.397 102.452 101.893 99.7719 103.139C97.8034 104.055 89.3643 108.169 85.0207 110.29Z" fill="url(#paint33_linear_518_12027)"/>
<path d="M85.0207 110.29C83.9297 110.823 83.9059 112.363 84.9755 112.938L91.1547 116.255C91.557 116.471 92.0325 116.492 92.451 116.31C94.8194 115.276 102.869 111.76 104.957 110.788C107.414 109.646 109.876 105.229 109.447 104.312C109.019 103.397 102.452 101.893 99.7719 103.139C97.8034 104.055 89.3643 108.169 85.0207 110.29Z" fill="url(#paint34_linear_518_12027)"/>
<path d="M85.0207 110.29C83.9297 110.823 83.9059 112.363 84.9755 112.938L91.1547 116.255C91.557 116.471 92.0325 116.492 92.451 116.31C94.8194 115.276 102.869 111.76 104.957 110.788C107.414 109.646 109.876 105.229 109.447 104.312C109.019 103.397 102.452 101.893 99.7719 103.139C97.8034 104.055 89.3643 108.169 85.0207 110.29Z" fill="url(#paint35_linear_518_12027)"/>
<path d="M38.3148 58.9388C39.8325 71.8382 38.9472 90.7136 38.3148 98.5388C42.678 102.333 46.1398 100.12 47.3253 98.5388C45.4283 92.6582 44.4798 77.2768 44.2427 70.3213C49.3329 63.682 63.6867 78.3834 73.1716 66.0531L71.9977 64.9712C62.2757 76.8273 54.9132 58.9388 44.2427 66.0531C44.1637 64.3142 44.053 59.0817 44.2427 52.0629C44.4324 45.0441 58.0748 45.9762 64.8723 47.3196V46.1435C58.4226 42.3491 46.0734 41.364 39.5561 47.3194C31.494 35.7001 24.3245 56.0934 12.9426 44.2373L11.2828 45.4229C19.345 56.8048 36.4177 42.8146 38.3148 58.9388Z" fill="url(#paint36_linear_518_12027)"/>
<path d="M208.726 27.7177C210.244 40.6171 209.358 59.4924 208.726 67.3176C213.089 71.1116 216.551 68.8984 217.736 67.3176C213.044 52.7709 214.52 25.7797 214.654 20.8418C214.844 13.823 228.486 14.7551 235.283 16.0985V14.9224C228.834 11.128 216.485 10.1429 209.967 16.0983C201.905 4.47901 198.655 25.5929 187.273 13.7368L185.614 14.9224C193.676 26.3043 206.829 11.5935 208.726 27.7177Z" fill="url(#paint37_linear_518_12027)"/>
<path d="M150.203 37.0691C151.448 48.4468 150.722 65.0955 150.203 71.9976C153.782 75.344 156.622 73.3919 157.594 71.9976C156.038 66.8107 155.26 53.2439 155.066 47.1088C159.241 41.2528 171.016 54.2199 178.796 43.3441L177.834 42.3899C169.858 52.8473 163.819 37.0691 155.066 43.3441C155.001 41.8104 154.91 37.1951 155.066 31.0043C155.221 24.8135 166.412 25.6356 171.988 26.8206V25.7832C166.698 22.4365 156.567 21.5676 151.221 26.8204C144.607 16.5718 138.726 34.5593 129.389 24.1019L128.028 25.1477C134.641 35.1868 148.647 22.847 150.203 37.0691Z" fill="url(#paint38_linear_518_12027)"/>
<path d="M123.746 21.9662C126.258 20.9597 132.191 25.4899 136.964 25.4899C141.737 25.4898 143.789 19.861 149.519 23.7737C150.932 24.739 149.628 47.7475 145.625 47.7475C144.038 47.7475 142.852 34.6047 142.852 34.6047C142.852 34.6047 141.819 52.4531 140.146 52.3484C138.237 52.2289 137.229 37.1417 136.964 32.3617C136.898 38.2372 136.248 56.6099 134.18 56.6099C132.111 56.6099 130.799 36.843 130.401 30.2704C130.069 36.8928 130.679 52.4679 128.611 52.3484C126.874 52.2481 126.518 33.0182 126.518 33.0182C126.518 33.0182 124.99 47.7475 123.746 47.7475C121.757 47.7475 120.763 23.1613 123.746 21.9662Z" fill="url(#paint39_radial_518_12027)"/>
<path d="M123.746 21.9662C126.258 20.9597 132.191 25.4899 136.964 25.4899C141.737 25.4898 143.789 19.861 149.519 23.7737C150.932 24.739 149.628 47.7475 145.625 47.7475C144.038 47.7475 142.852 34.6047 142.852 34.6047C142.852 34.6047 141.819 52.4531 140.146 52.3484C138.237 52.2289 137.229 37.1417 136.964 32.3617C136.898 38.2372 136.248 56.6099 134.18 56.6099C132.111 56.6099 130.799 36.843 130.401 30.2704C130.069 36.8928 130.679 52.4679 128.611 52.3484C126.874 52.2481 126.518 33.0182 126.518 33.0182C126.518 33.0182 124.99 47.7475 123.746 47.7475C121.757 47.7475 120.763 23.1613 123.746 21.9662Z" fill="url(#paint40_radial_518_12027)"/>
<path d="M123.746 21.9662C126.258 20.9597 132.191 25.4899 136.964 25.4899C141.737 25.4898 143.789 19.861 149.519 23.7737C150.932 24.739 149.628 47.7475 145.625 47.7475C144.038 47.7475 142.852 34.6047 142.852 34.6047C142.852 34.6047 141.819 52.4531 140.146 52.3484C138.237 52.2289 137.229 37.1417 136.964 32.3617C136.898 38.2372 136.248 56.6099 134.18 56.6099C132.111 56.6099 130.799 36.843 130.401 30.2704C130.069 36.8928 130.679 52.4679 128.611 52.3484C126.874 52.2481 126.518 33.0182 126.518 33.0182C126.518 33.0182 124.99 47.7475 123.746 47.7475C121.757 47.7475 120.763 23.1613 123.746 21.9662Z" fill="url(#paint41_radial_518_12027)"/>
<path d="M123.746 21.9662C126.258 20.9597 132.191 25.4899 136.964 25.4899C141.737 25.4898 143.789 19.861 149.519 23.7737C150.932 24.739 149.628 47.7475 145.625 47.7475C144.038 47.7475 142.852 34.6047 142.852 34.6047C142.852 34.6047 141.819 52.4531 140.146 52.3484C138.237 52.2289 137.229 37.1417 136.964 32.3617C136.898 38.2372 136.248 56.6099 134.18 56.6099C132.111 56.6099 130.799 36.843 130.401 30.2704C130.069 36.8928 130.679 52.4679 128.611 52.3484C126.874 52.2481 126.518 33.0182 126.518 33.0182C126.518 33.0182 124.99 47.7475 123.746 47.7475C121.757 47.7475 120.763 23.1613 123.746 21.9662Z" fill="url(#paint42_radial_518_12027)"/>
<path d="M123.746 21.9662C126.258 20.9597 132.191 25.4899 136.964 25.4899C141.737 25.4898 143.789 19.861 149.519 23.7737C150.932 24.739 149.628 47.7475 145.625 47.7475C144.038 47.7475 142.852 34.6047 142.852 34.6047C142.852 34.6047 141.819 52.4531 140.146 52.3484C138.237 52.2289 137.229 37.1417 136.964 32.3617C136.898 38.2372 136.248 56.6099 134.18 56.6099C132.111 56.6099 130.799 36.843 130.401 30.2704C130.069 36.8928 130.679 52.4679 128.611 52.3484C126.874 52.2481 126.518 33.0182 126.518 33.0182C126.518 33.0182 124.99 47.7475 123.746 47.7475C121.757 47.7475 120.763 23.1613 123.746 21.9662Z" fill="url(#paint43_radial_518_12027)"/>
<path d="M157.102 24.3648C160.155 22.9911 167.379 21.9602 173.214 25.3947C175.249 26.4254 173.723 40.6777 171.857 40.506C170.364 40.3686 169.878 33.0078 169.822 29.3445C169.652 33.4657 168.974 41.6737 167.617 41.5363C166.26 41.3989 165.13 33.3512 164.734 29.3445C164.621 32.4354 163.954 38.6171 162.19 38.6171C160.576 38.6171 160.149 30.1944 160.149 30.1944C160.149 30.1944 159.719 40.506 158.459 40.506C156.763 40.506 154.049 25.7385 157.102 24.3648Z" fill="url(#paint44_radial_518_12027)"/>
<path d="M157.102 24.3648C160.155 22.9911 167.379 21.9602 173.214 25.3947C175.249 26.4254 173.723 40.6777 171.857 40.506C170.364 40.3686 169.878 33.0078 169.822 29.3445C169.652 33.4657 168.974 41.6737 167.617 41.5363C166.26 41.3989 165.13 33.3512 164.734 29.3445C164.621 32.4354 163.954 38.6171 162.19 38.6171C160.576 38.6171 160.149 30.1944 160.149 30.1944C160.149 30.1944 159.719 40.506 158.459 40.506C156.763 40.506 154.049 25.7385 157.102 24.3648Z" fill="url(#paint45_radial_518_12027)"/>
<path d="M157.102 24.3648C160.155 22.9911 167.379 21.9602 173.214 25.3947C175.249 26.4254 173.723 40.6777 171.857 40.506C170.364 40.3686 169.878 33.0078 169.822 29.3445C169.652 33.4657 168.974 41.6737 167.617 41.5363C166.26 41.3989 165.13 33.3512 164.734 29.3445C164.621 32.4354 163.954 38.6171 162.19 38.6171C160.576 38.6171 160.149 30.1944 160.149 30.1944C160.149 30.1944 159.719 40.506 158.459 40.506C156.763 40.506 154.049 25.7385 157.102 24.3648Z" fill="url(#paint46_radial_518_12027)"/>
<path d="M157.102 24.3648C160.155 22.9911 167.379 21.9602 173.214 25.3947C175.249 26.4254 173.723 40.6777 171.857 40.506C170.364 40.3686 169.878 33.0078 169.822 29.3445C169.652 33.4657 168.974 41.6737 167.617 41.5363C166.26 41.3989 165.13 33.3512 164.734 29.3445C164.621 32.4354 163.954 38.6171 162.19 38.6171C160.576 38.6171 160.149 30.1944 160.149 30.1944C160.149 30.1944 159.719 40.506 158.459 40.506C156.763 40.506 154.049 25.7385 157.102 24.3648Z" fill="url(#paint47_radial_518_12027)"/>
<path d="M157.102 24.3648C160.155 22.9911 167.379 21.9602 173.214 25.3947C175.249 26.4254 173.723 40.6777 171.857 40.506C170.364 40.3686 169.878 33.0078 169.822 29.3445C169.652 33.4657 168.974 41.6737 167.617 41.5363C166.26 41.3989 165.13 33.3512 164.734 29.3445C164.621 32.4354 163.954 38.6171 162.19 38.6171C160.576 38.6171 160.149 30.1944 160.149 30.1944C160.149 30.1944 159.719 40.506 158.459 40.506C156.763 40.506 154.049 25.7385 157.102 24.3648Z" fill="url(#paint48_radial_518_12027)"/>
<path d="M9.77957 41.3089C12.6767 39.9737 18.5728 45.6146 24.0771 45.6145C29.5814 45.6144 30.5141 39.1752 37.121 44.3657C39.0372 45.8711 35.8782 75.1413 33.2363 75.1413C31.4056 75.1413 30.8324 63.8622 30.8669 57.7062C30.5716 65.8995 29.6754 81.3837 27.7466 81.2448C25.5449 81.0863 24.3829 61.0718 24.0771 54.7306C24.0006 62.525 23.2514 86.898 20.8662 86.898C18.481 86.898 16.9673 60.6755 16.5086 51.9563C16.1264 60.7415 16.8297 81.4034 14.4445 81.2448C12.4417 81.1117 12.0311 55.6016 12.0311 55.6016C12.0311 55.6016 10.2693 75.1413 8.83412 75.1413C6.54069 75.1413 6.33944 42.8943 9.77957 41.3089Z" fill="url(#paint49_radial_518_12027)"/>
<path d="M9.77957 41.3089C12.6767 39.9737 18.5728 45.6146 24.0771 45.6145C29.5814 45.6144 30.5141 39.1752 37.121 44.3657C39.0372 45.8711 35.8782 75.1413 33.2363 75.1413C31.4056 75.1413 30.8324 63.8622 30.8669 57.7062C30.5716 65.8995 29.6754 81.3837 27.7466 81.2448C25.5449 81.0863 24.3829 61.0718 24.0771 54.7306C24.0006 62.525 23.2514 86.898 20.8662 86.898C18.481 86.898 16.9673 60.6755 16.5086 51.9563C16.1264 60.7415 16.8297 81.4034 14.4445 81.2448C12.4417 81.1117 12.0311 55.6016 12.0311 55.6016C12.0311 55.6016 10.2693 75.1413 8.83412 75.1413C6.54069 75.1413 6.33944 42.8943 9.77957 41.3089Z" fill="url(#paint50_radial_518_12027)"/>
<path d="M9.77957 41.3089C12.6767 39.9737 18.5728 45.6146 24.0771 45.6145C29.5814 45.6144 30.5141 39.1752 37.121 44.3657C39.0372 45.8711 35.8782 75.1413 33.2363 75.1413C31.4056 75.1413 30.8324 63.8622 30.8669 57.7062C30.5716 65.8995 29.6754 81.3837 27.7466 81.2448C25.5449 81.0863 24.3829 61.0718 24.0771 54.7306C24.0006 62.525 23.2514 86.898 20.8662 86.898C18.481 86.898 16.9673 60.6755 16.5086 51.9563C16.1264 60.7415 16.8297 81.4034 14.4445 81.2448C12.4417 81.1117 12.0311 55.6016 12.0311 55.6016C12.0311 55.6016 10.2693 75.1413 8.83412 75.1413C6.54069 75.1413 6.33944 42.8943 9.77957 41.3089Z" fill="url(#paint51_radial_518_12027)"/>
<path d="M9.77957 41.3089C12.6767 39.9737 18.5728 45.6146 24.0771 45.6145C29.5814 45.6144 30.5141 39.1752 37.121 44.3657C39.0372 45.8711 35.8782 75.1413 33.2363 75.1413C31.4056 75.1413 30.8324 63.8622 30.8669 57.7062C30.5716 65.8995 29.6754 81.3837 27.7466 81.2448C25.5449 81.0863 24.3829 61.0718 24.0771 54.7306C24.0006 62.525 23.2514 86.898 20.8662 86.898C18.481 86.898 16.9673 60.6755 16.5086 51.9563C16.1264 60.7415 16.8297 81.4034 14.4445 81.2448C12.4417 81.1117 12.0311 55.6016 12.0311 55.6016C12.0311 55.6016 10.2693 75.1413 8.83412 75.1413C6.54069 75.1413 6.33944 42.8943 9.77957 41.3089Z" fill="url(#paint52_radial_518_12027)"/>
<path d="M9.77957 41.3089C12.6767 39.9737 18.5728 45.6146 24.0771 45.6145C29.5814 45.6144 30.5141 39.1752 37.121 44.3657C39.0372 45.8711 35.8782 75.1413 33.2363 75.1413C31.4056 75.1413 30.8324 63.8622 30.8669 57.7062C30.5716 65.8995 29.6754 81.3837 27.7466 81.2448C25.5449 81.0863 24.3829 61.0718 24.0771 54.7306C24.0006 62.525 23.2514 86.898 20.8662 86.898C18.481 86.898 16.9673 60.6755 16.5086 51.9563C16.1264 60.7415 16.8297 81.4034 14.4445 81.2448C12.4417 81.1117 12.0311 55.6016 12.0311 55.6016C12.0311 55.6016 10.2693 75.1413 8.83412 75.1413C6.54069 75.1413 6.33944 42.8943 9.77957 41.3089Z" fill="url(#paint53_radial_518_12027)"/>
<path d="M45.0456 43.1162C48.8323 41.4331 57.7945 40.1701 65.0318 44.3781C67.5565 45.6408 65.6631 63.1027 63.3488 62.8923C61.4974 62.724 60.8943 53.7055 60.8242 49.2173C60.6138 54.2665 59.7723 64.3229 58.0892 64.1546C56.4062 63.9863 55.0036 54.1263 54.5127 49.2173C54.3724 53.0042 53.5449 60.578 51.3569 60.578C49.355 60.578 48.8256 50.2586 48.8256 50.2586C48.8256 50.2586 48.2914 62.8923 46.7285 62.8923C44.6247 62.8923 41.2588 44.7993 45.0456 43.1162Z" fill="url(#paint54_radial_518_12027)"/>
<path d="M45.0456 43.1162C48.8323 41.4331 57.7945 40.1701 65.0318 44.3781C67.5565 45.6408 65.6631 63.1027 63.3488 62.8923C61.4974 62.724 60.8943 53.7055 60.8242 49.2173C60.6138 54.2665 59.7723 64.3229 58.0892 64.1546C56.4062 63.9863 55.0036 54.1263 54.5127 49.2173C54.3724 53.0042 53.5449 60.578 51.3569 60.578C49.355 60.578 48.8256 50.2586 48.8256 50.2586C48.8256 50.2586 48.2914 62.8923 46.7285 62.8923C44.6247 62.8923 41.2588 44.7993 45.0456 43.1162Z" fill="url(#paint55_radial_518_12027)"/>
<path d="M45.0456 43.1162C48.8323 41.4331 57.7945 40.1701 65.0318 44.3781C67.5565 45.6408 65.6631 63.1027 63.3488 62.8923C61.4974 62.724 60.8943 53.7055 60.8242 49.2173C60.6138 54.2665 59.7723 64.3229 58.0892 64.1546C56.4062 63.9863 55.0036 54.1263 54.5127 49.2173C54.3724 53.0042 53.5449 60.578 51.3569 60.578C49.355 60.578 48.8256 50.2586 48.8256 50.2586C48.8256 50.2586 48.2914 62.8923 46.7285 62.8923C44.6247 62.8923 41.2588 44.7993 45.0456 43.1162Z" fill="url(#paint56_radial_518_12027)"/>
<path d="M45.0456 43.1162C48.8323 41.4331 57.7945 40.1701 65.0318 44.3781C67.5565 45.6408 65.6631 63.1027 63.3488 62.8923C61.4974 62.724 60.8943 53.7055 60.8242 49.2173C60.6138 54.2665 59.7723 64.3229 58.0892 64.1546C56.4062 63.9863 55.0036 54.1263 54.5127 49.2173C54.3724 53.0042 53.5449 60.578 51.3569 60.578C49.355 60.578 48.8256 50.2586 48.8256 50.2586C48.8256 50.2586 48.2914 62.8923 46.7285 62.8923C44.6247 62.8923 41.2588 44.7993 45.0456 43.1162Z" fill="url(#paint57_radial_518_12027)"/>
<path d="M45.0456 43.1162C48.8323 41.4331 57.7945 40.1701 65.0318 44.3781C67.5565 45.6408 65.6631 63.1027 63.3488 62.8923C61.4974 62.724 60.8943 53.7055 60.8242 49.2173C60.6138 54.2665 59.7723 64.3229 58.0892 64.1546C56.4062 63.9863 55.0036 54.1263 54.5127 49.2173C54.3724 53.0042 53.5449 60.578 51.3569 60.578C49.355 60.578 48.8256 50.2586 48.8256 50.2586C48.8256 50.2586 48.2914 62.8923 46.7285 62.8923C44.6247 62.8923 41.2588 44.7993 45.0456 43.1162Z" fill="url(#paint58_radial_518_12027)"/>
<path d="M54.4479 68.9036C55.2401 76.144 54.778 86.7386 54.4479 91.1308C56.7255 93.2603 58.5327 92.0181 59.1515 91.1308C58.1613 87.8301 57.6661 79.1966 57.5424 75.2925C60.1996 71.5659 67.6926 79.8177 72.6439 72.8968L72.0311 72.2895C66.956 78.9443 63.1126 68.9036 57.5424 72.8968C57.5011 71.9208 57.4433 68.9838 57.5424 65.0442C57.6414 61.1046 64.763 61.6278 68.3115 62.3818V61.7217C64.9446 59.5919 58.498 59.039 55.0959 62.3817C50.8872 55.8599 47.1446 67.3065 41.203 60.6517L40.3365 61.3172C44.5452 67.7058 53.4575 59.8532 54.4479 68.9036Z" fill="url(#paint59_linear_518_12027)"/>
<path d="M36.3689 58.2428C38.3818 57.4397 41.6275 60.9842 45.452 60.9841C49.2764 60.9841 49.6029 57.4541 54.1934 60.5762C54.9515 61.0918 53.9623 78.7446 51.8158 78.7446C50.5439 78.7446 50.1696 68.2573 50.1696 68.2573C50.1696 68.2573 49.3417 82.4994 48.0016 82.4159C46.4718 82.3205 45.6644 70.2817 45.452 66.4675C45.3988 71.1558 44.8783 85.8163 43.221 85.8163C41.5638 85.8163 40.512 70.0433 40.1933 64.7988C39.9278 70.0831 40.4164 82.5113 38.7591 82.4159C37.3676 82.3358 37.0823 66.9914 37.0823 66.9914C37.0823 66.9914 35.8582 78.7446 34.861 78.7446C33.2675 78.7446 33.9786 59.1964 36.3689 58.2428Z" fill="url(#paint60_radial_518_12027)"/>
<path d="M36.3689 58.2428C38.3818 57.4397 41.6275 60.9842 45.452 60.9841C49.2764 60.9841 49.6029 57.4541 54.1934 60.5762C54.9515 61.0918 53.9623 78.7446 51.8158 78.7446C50.5439 78.7446 50.1696 68.2573 50.1696 68.2573C50.1696 68.2573 49.3417 82.4994 48.0016 82.4159C46.4718 82.3205 45.6644 70.2817 45.452 66.4675C45.3988 71.1558 44.8783 85.8163 43.221 85.8163C41.5638 85.8163 40.512 70.0433 40.1933 64.7988C39.9278 70.0831 40.4164 82.5113 38.7591 82.4159C37.3676 82.3358 37.0823 66.9914 37.0823 66.9914C37.0823 66.9914 35.8582 78.7446 34.861 78.7446C33.2675 78.7446 33.9786 59.1964 36.3689 58.2428Z" fill="url(#paint61_radial_518_12027)"/>
<path d="M36.3689 58.2428C38.3818 57.4397 41.6275 60.9842 45.452 60.9841C49.2764 60.9841 49.6029 57.4541 54.1934 60.5762C54.9515 61.0918 53.9623 78.7446 51.8158 78.7446C50.5439 78.7446 50.1696 68.2573 50.1696 68.2573C50.1696 68.2573 49.3417 82.4994 48.0016 82.4159C46.4718 82.3205 45.6644 70.2817 45.452 66.4675C45.3988 71.1558 44.8783 85.8163 43.221 85.8163C41.5638 85.8163 40.512 70.0433 40.1933 64.7988C39.9278 70.0831 40.4164 82.5113 38.7591 82.4159C37.3676 82.3358 37.0823 66.9914 37.0823 66.9914C37.0823 66.9914 35.8582 78.7446 34.861 78.7446C33.2675 78.7446 33.9786 59.1964 36.3689 58.2428Z" fill="url(#paint62_radial_518_12027)"/>
<path d="M36.3689 58.2428C38.3818 57.4397 41.6275 60.9842 45.452 60.9841C49.2764 60.9841 49.6029 57.4541 54.1934 60.5762C54.9515 61.0918 53.9623 78.7446 51.8158 78.7446C50.5439 78.7446 50.1696 68.2573 50.1696 68.2573C50.1696 68.2573 49.3417 82.4994 48.0016 82.4159C46.4718 82.3205 45.6644 70.2817 45.452 66.4675C45.3988 71.1558 44.8783 85.8163 43.221 85.8163C41.5638 85.8163 40.512 70.0433 40.1933 64.7988C39.9278 70.0831 40.4164 82.5113 38.7591 82.4159C37.3676 82.3358 37.0823 66.9914 37.0823 66.9914C37.0823 66.9914 35.8582 78.7446 34.861 78.7446C33.2675 78.7446 33.9786 59.1964 36.3689 58.2428Z" fill="url(#paint63_radial_518_12027)"/>
<path d="M36.3689 58.2428C38.3818 57.4397 41.6275 60.9842 45.452 60.9841C49.2764 60.9841 49.6029 57.4541 54.1934 60.5762C54.9515 61.0918 53.9623 78.7446 51.8158 78.7446C50.5439 78.7446 50.1696 68.2573 50.1696 68.2573C50.1696 68.2573 49.3417 82.4994 48.0016 82.4159C46.4718 82.3205 45.6644 70.2817 45.452 66.4675C45.3988 71.1558 44.8783 85.8163 43.221 85.8163C41.5638 85.8163 40.512 70.0433 40.1933 64.7988C39.9278 70.0831 40.4164 82.5113 38.7591 82.4159C37.3676 82.3358 37.0823 66.9914 37.0823 66.9914C37.0823 66.9914 35.8582 78.7446 34.861 78.7446C33.2675 78.7446 33.9786 59.1964 36.3689 58.2428Z" fill="url(#paint64_radial_518_12027)"/>
<path d="M57.9604 60.9057C60.6791 59.4386 67.1137 58.3377 72.3098 62.0056C74.1225 63.1062 72.763 78.3267 71.1015 78.1434C69.7723 77.9967 69.3393 70.1358 69.2889 66.2236C69.1379 70.6248 68.5337 79.3903 67.3253 79.2436C66.1169 79.0969 65.1099 70.5025 64.7575 66.2236C64.6568 69.5245 64.0626 76.1262 62.4917 76.1262C61.0544 76.1262 60.6743 67.1313 60.6743 67.1313C60.6743 67.1313 60.2908 78.1434 59.1687 78.1434C57.6582 78.1434 55.2416 62.3727 57.9604 60.9057Z" fill="url(#paint65_radial_518_12027)"/>
<path d="M57.9604 60.9057C60.6791 59.4386 67.1137 58.3377 72.3098 62.0056C74.1225 63.1062 72.763 78.3267 71.1015 78.1434C69.7723 77.9967 69.3393 70.1358 69.2889 66.2236C69.1379 70.6248 68.5337 79.3903 67.3253 79.2436C66.1169 79.0969 65.1099 70.5025 64.7575 66.2236C64.6568 69.5245 64.0626 76.1262 62.4917 76.1262C61.0544 76.1262 60.6743 67.1313 60.6743 67.1313C60.6743 67.1313 60.2908 78.1434 59.1687 78.1434C57.6582 78.1434 55.2416 62.3727 57.9604 60.9057Z" fill="url(#paint66_radial_518_12027)"/>
<path d="M57.9604 60.9057C60.6791 59.4386 67.1137 58.3377 72.3098 62.0056C74.1225 63.1062 72.763 78.3267 71.1015 78.1434C69.7723 77.9967 69.3393 70.1358 69.2889 66.2236C69.1379 70.6248 68.5337 79.3903 67.3253 79.2436C66.1169 79.0969 65.1099 70.5025 64.7575 66.2236C64.6568 69.5245 64.0626 76.1262 62.4917 76.1262C61.0544 76.1262 60.6743 67.1313 60.6743 67.1313C60.6743 67.1313 60.2908 78.1434 59.1687 78.1434C57.6582 78.1434 55.2416 62.3727 57.9604 60.9057Z" fill="url(#paint67_radial_518_12027)"/>
<path d="M57.9604 60.9057C60.6791 59.4386 67.1137 58.3377 72.3098 62.0056C74.1225 63.1062 72.763 78.3267 71.1015 78.1434C69.7723 77.9967 69.3393 70.1358 69.2889 66.2236C69.1379 70.6248 68.5337 79.3903 67.3253 79.2436C66.1169 79.0969 65.1099 70.5025 64.7575 66.2236C64.6568 69.5245 64.0626 76.1262 62.4917 76.1262C61.0544 76.1262 60.6743 67.1313 60.6743 67.1313C60.6743 67.1313 60.2908 78.1434 59.1687 78.1434C57.6582 78.1434 55.2416 62.3727 57.9604 60.9057Z" fill="url(#paint68_radial_518_12027)"/>
<path d="M57.9604 60.9057C60.6791 59.4386 67.1137 58.3377 72.3098 62.0056C74.1225 63.1062 72.763 78.3267 71.1015 78.1434C69.7723 77.9967 69.3393 70.1358 69.2889 66.2236C69.1379 70.6248 68.5337 79.3903 67.3253 79.2436C66.1169 79.0969 65.1099 70.5025 64.7575 66.2236C64.6568 69.5245 64.0626 76.1262 62.4917 76.1262C61.0544 76.1262 60.6743 67.1313 60.6743 67.1313C60.6743 67.1313 60.2908 78.1434 59.1687 78.1434C57.6582 78.1434 55.2416 62.3727 57.9604 60.9057Z" fill="url(#paint69_radial_518_12027)"/>
<path d="M214.869 12.7663C218.751 11.041 227.938 9.74623 235.357 14.0598C237.945 15.3542 236.004 33.254 233.632 33.0383C231.734 32.8658 231.116 23.6211 231.044 19.0204C230.828 24.1962 229.965 34.5048 228.24 34.3323C226.515 34.1598 225.077 24.0525 224.574 19.0204C224.43 22.9023 223.582 30.6661 221.339 30.6661C219.287 30.6661 218.744 20.0878 218.744 20.0878C218.744 20.0878 218.197 33.0383 216.594 33.0383C214.438 33.0383 210.988 14.4916 214.869 12.7663Z" fill="url(#paint70_radial_518_12027)"/>
<path d="M214.869 12.7663C218.751 11.041 227.938 9.74623 235.357 14.0598C237.945 15.3542 236.004 33.254 233.632 33.0383C231.734 32.8658 231.116 23.6211 231.044 19.0204C230.828 24.1962 229.965 34.5048 228.24 34.3323C226.515 34.1598 225.077 24.0525 224.574 19.0204C224.43 22.9023 223.582 30.6661 221.339 30.6661C219.287 30.6661 218.744 20.0878 218.744 20.0878C218.744 20.0878 218.197 33.0383 216.594 33.0383C214.438 33.0383 210.988 14.4916 214.869 12.7663Z" fill="url(#paint71_radial_518_12027)"/>
<path d="M214.869 12.7663C218.751 11.041 227.938 9.74623 235.357 14.0598C237.945 15.3542 236.004 33.254 233.632 33.0383C231.734 32.8658 231.116 23.6211 231.044 19.0204C230.828 24.1962 229.965 34.5048 228.24 34.3323C226.515 34.1598 225.077 24.0525 224.574 19.0204C224.43 22.9023 223.582 30.6661 221.339 30.6661C219.287 30.6661 218.744 20.0878 218.744 20.0878C218.744 20.0878 218.197 33.0383 216.594 33.0383C214.438 33.0383 210.988 14.4916 214.869 12.7663Z" fill="url(#paint72_radial_518_12027)"/>
<path d="M214.869 12.7663C218.751 11.041 227.938 9.74623 235.357 14.0598C237.945 15.3542 236.004 33.254 233.632 33.0383C231.734 32.8658 231.116 23.6211 231.044 19.0204C230.828 24.1962 229.965 34.5048 228.24 34.3323C226.515 34.1598 225.077 24.0525 224.574 19.0204C224.43 22.9023 223.582 30.6661 221.339 30.6661C219.287 30.6661 218.744 20.0878 218.744 20.0878C218.744 20.0878 218.197 33.0383 216.594 33.0383C214.438 33.0383 210.988 14.4916 214.869 12.7663Z" fill="url(#paint73_radial_518_12027)"/>
<path d="M214.869 12.7663C218.751 11.041 227.938 9.74623 235.357 14.0598C237.945 15.3542 236.004 33.254 233.632 33.0383C231.734 32.8658 231.116 23.6211 231.044 19.0204C230.828 24.1962 229.965 34.5048 228.24 34.3323C226.515 34.1598 225.077 24.0525 224.574 19.0204C224.43 22.9023 223.582 30.6661 221.339 30.6661C219.287 30.6661 218.744 20.0878 218.744 20.0878C218.744 20.0878 218.197 33.0383 216.594 33.0383C214.438 33.0383 210.988 14.4916 214.869 12.7663Z" fill="url(#paint74_radial_518_12027)"/>
<path d="M185.315 11.2126C189.517 9.099 199.462 7.51285 207.493 12.7972C210.295 14.3829 208.194 36.3112 205.626 36.047C203.571 35.8356 202.902 24.5104 202.824 18.8742C202.591 25.2149 201.657 37.8435 199.789 37.6322C197.921 37.4208 196.365 25.0388 195.82 18.8742C195.665 23.6298 194.746 33.1408 192.318 33.1408C190.097 33.1408 189.509 20.1818 189.509 20.1818C189.509 20.1818 188.916 36.047 187.182 36.047C184.847 36.047 181.112 13.3261 185.315 11.2126Z" fill="url(#paint75_radial_518_12027)"/>
<path d="M185.315 11.2126C189.517 9.099 199.462 7.51285 207.493 12.7972C210.295 14.3829 208.194 36.3112 205.626 36.047C203.571 35.8356 202.902 24.5104 202.824 18.8742C202.591 25.2149 201.657 37.8435 199.789 37.6322C197.921 37.4208 196.365 25.0388 195.82 18.8742C195.665 23.6298 194.746 33.1408 192.318 33.1408C190.097 33.1408 189.509 20.1818 189.509 20.1818C189.509 20.1818 188.916 36.047 187.182 36.047C184.847 36.047 181.112 13.3261 185.315 11.2126Z" fill="url(#paint76_radial_518_12027)"/>
<path d="M185.315 11.2126C189.517 9.099 199.462 7.51285 207.493 12.7972C210.295 14.3829 208.194 36.3112 205.626 36.047C203.571 35.8356 202.902 24.5104 202.824 18.8742C202.591 25.2149 201.657 37.8435 199.789 37.6322C197.921 37.4208 196.365 25.0388 195.82 18.8742C195.665 23.6298 194.746 33.1408 192.318 33.1408C190.097 33.1408 189.509 20.1818 189.509 20.1818C189.509 20.1818 188.916 36.047 187.182 36.047C184.847 36.047 181.112 13.3261 185.315 11.2126Z" fill="url(#paint77_radial_518_12027)"/>
<path d="M185.315 11.2126C189.517 9.099 199.462 7.51285 207.493 12.7972C210.295 14.3829 208.194 36.3112 205.626 36.047C203.571 35.8356 202.902 24.5104 202.824 18.8742C202.591 25.2149 201.657 37.8435 199.789 37.6322C197.921 37.4208 196.365 25.0388 195.82 18.8742C195.665 23.6298 194.746 33.1408 192.318 33.1408C190.097 33.1408 189.509 20.1818 189.509 20.1818C189.509 20.1818 188.916 36.047 187.182 36.047C184.847 36.047 181.112 13.3261 185.315 11.2126Z" fill="url(#paint78_radial_518_12027)"/>
<path d="M185.315 11.2126C189.517 9.099 199.462 7.51285 207.493 12.7972C210.295 14.3829 208.194 36.3112 205.626 36.047C203.571 35.8356 202.902 24.5104 202.824 18.8742C202.591 25.2149 201.657 37.8435 199.789 37.6322C197.921 37.4208 196.365 25.0388 195.82 18.8742C195.665 23.6298 194.746 33.1408 192.318 33.1408C190.097 33.1408 189.509 20.1818 189.509 20.1818C189.509 20.1818 188.916 36.047 187.182 36.047C184.847 36.047 181.112 13.3261 185.315 11.2126Z" fill="url(#paint79_radial_518_12027)"/>
<path d="M201.471 54.6651C203.314 70.3228 200.147 76.573 199.38 86.0715C204.676 90.6767 208.878 87.9903 210.317 86.0715C204.621 68.4143 208.505 52.3127 208.667 46.3189C208.897 37.7993 225.457 38.9307 233.708 40.5614V39.1338C225.879 34.5281 210.889 33.3324 202.978 40.5611C193.192 26.4573 184.49 51.2112 170.674 36.82L168.659 38.2592C178.445 52.0747 199.169 35.0931 201.471 54.6651Z" fill="url(#paint80_linear_518_12027)"/>
<path d="M166.364 63.6665C163.939 63.6665 164.666 35.7845 168.304 33.9709C174.392 30.936 191.346 32.0672 201.051 37.2522C202.026 37.7734 198.428 72.9603 196.682 72.9603C194.935 72.9603 194.175 57.395 194.014 49.6123C194.094 54.297 193.674 63.6665 191.346 63.6665C189.651 63.6665 189.242 54.1952 189.242 54.1952C189.242 54.1952 187.919 71.749 186.01 71.6002C183.681 71.4189 182.452 56.8661 182.129 49.6123C182.048 58.5284 181.256 76.3605 178.733 76.3605C176.211 76.3605 174.61 56.4127 174.125 46.4388C173.721 56.4883 174.465 69.9672 171.942 69.7858C169.837 69.6344 169.383 50.0732 169.383 50.0732C169.383 50.0732 167.835 63.6665 166.364 63.6665Z" fill="url(#paint81_radial_518_12027)"/>
<path d="M166.364 63.6665C163.939 63.6665 164.666 35.7845 168.304 33.9709C174.392 30.936 191.346 32.0672 201.051 37.2522C202.026 37.7734 198.428 72.9603 196.682 72.9603C194.935 72.9603 194.175 57.395 194.014 49.6123C194.094 54.297 193.674 63.6665 191.346 63.6665C189.651 63.6665 189.242 54.1952 189.242 54.1952C189.242 54.1952 187.919 71.749 186.01 71.6002C183.681 71.4189 182.452 56.8661 182.129 49.6123C182.048 58.5284 181.256 76.3605 178.733 76.3605C176.211 76.3605 174.61 56.4127 174.125 46.4388C173.721 56.4883 174.465 69.9672 171.942 69.7858C169.837 69.6344 169.383 50.0732 169.383 50.0732C169.383 50.0732 167.835 63.6665 166.364 63.6665Z" fill="url(#paint82_radial_518_12027)"/>
<path d="M166.364 63.6665C163.939 63.6665 164.666 35.7845 168.304 33.9709C174.392 30.936 191.346 32.0672 201.051 37.2522C202.026 37.7734 198.428 72.9603 196.682 72.9603C194.935 72.9603 194.175 57.395 194.014 49.6123C194.094 54.297 193.674 63.6665 191.346 63.6665C189.651 63.6665 189.242 54.1952 189.242 54.1952C189.242 54.1952 187.919 71.749 186.01 71.6002C183.681 71.4189 182.452 56.8661 182.129 49.6123C182.048 58.5284 181.256 76.3605 178.733 76.3605C176.211 76.3605 174.61 56.4127 174.125 46.4388C173.721 56.4883 174.465 69.9672 171.942 69.7858C169.837 69.6344 169.383 50.0732 169.383 50.0732C169.383 50.0732 167.835 63.6665 166.364 63.6665Z" fill="url(#paint83_radial_518_12027)"/>
<path d="M166.364 63.6665C163.939 63.6665 164.666 35.7845 168.304 33.9709C174.392 30.936 191.346 32.0672 201.051 37.2522C202.026 37.7734 198.428 72.9603 196.682 72.9603C194.935 72.9603 194.175 57.395 194.014 49.6123C194.094 54.297 193.674 63.6665 191.346 63.6665C189.651 63.6665 189.242 54.1952 189.242 54.1952C189.242 54.1952 187.919 71.749 186.01 71.6002C183.681 71.4189 182.452 56.8661 182.129 49.6123C182.048 58.5284 181.256 76.3605 178.733 76.3605C176.211 76.3605 174.61 56.4127 174.125 46.4388C173.721 56.4883 174.465 69.9672 171.942 69.7858C169.837 69.6344 169.383 50.0732 169.383 50.0732C169.383 50.0732 167.835 63.6665 166.364 63.6665Z" fill="url(#paint84_radial_518_12027)"/>
<path d="M166.364 63.6665C163.939 63.6665 164.666 35.7845 168.304 33.9709C174.392 30.936 191.346 32.0672 201.051 37.2522C202.026 37.7734 198.428 72.9603 196.682 72.9603C194.935 72.9603 194.175 57.395 194.014 49.6123C194.094 54.297 193.674 63.6665 191.346 63.6665C189.651 63.6665 189.242 54.1952 189.242 54.1952C189.242 54.1952 187.919 71.749 186.01 71.6002C183.681 71.4189 182.452 56.8661 182.129 49.6123C182.048 58.5284 181.256 76.3605 178.733 76.3605C176.211 76.3605 174.61 56.4127 174.125 46.4388C173.721 56.4883 174.465 69.9672 171.942 69.7858C169.837 69.6344 169.383 50.0732 169.383 50.0732C169.383 50.0732 167.835 63.6665 166.364 63.6665Z" fill="url(#paint85_radial_518_12027)"/>
<path d="M166.364 63.6665C163.939 63.6665 164.666 35.7845 168.304 33.9709C174.392 30.936 191.346 32.0672 201.051 37.2522C202.026 37.7734 198.428 72.9603 196.682 72.9603C194.935 72.9603 194.175 57.395 194.014 49.6123C194.094 54.297 193.674 63.6665 191.346 63.6665C189.651 63.6665 189.242 54.1952 189.242 54.1952C189.242 54.1952 187.919 71.749 186.01 71.6002C183.681 71.4189 182.452 56.8661 182.129 49.6123C182.048 58.5284 181.256 76.3605 178.733 76.3605C176.211 76.3605 174.61 56.4127 174.125 46.4388C173.721 56.4883 174.465 69.9672 171.942 69.7858C169.837 69.6344 169.383 50.0732 169.383 50.0732C169.383 50.0732 167.835 63.6665 166.364 63.6665Z" fill="url(#paint86_radial_518_12027)"/>
<path d="M208.615 62.5638C206.163 62.5635 206.061 46.0499 206.316 37.7931C217.808 30.4393 237.562 37.6914 237.727 37.7931C241.047 39.8356 239.004 57.9676 235.684 57.9676C233.028 57.9676 231.683 50.8173 231.343 47.2421C231.598 52.3494 231.445 62.5638 228.789 62.5638C226.133 62.5638 224.278 52.3494 223.682 47.2421C223.682 54.1371 223.12 67.9269 220.873 67.9269C218.625 67.9269 217.893 54.1371 217.808 47.2421C217.638 52.3494 216.787 62.5638 214.744 62.5638C212.701 62.5638 211.85 50.9874 211.679 45.1992C211.679 50.9875 211.066 62.5641 208.615 62.5638Z" fill="url(#paint87_radial_518_12027)"/>
<path d="M208.615 62.5638C206.163 62.5635 206.061 46.0499 206.316 37.7931C217.808 30.4393 237.562 37.6914 237.727 37.7931C241.047 39.8356 239.004 57.9676 235.684 57.9676C233.028 57.9676 231.683 50.8173 231.343 47.2421C231.598 52.3494 231.445 62.5638 228.789 62.5638C226.133 62.5638 224.278 52.3494 223.682 47.2421C223.682 54.1371 223.12 67.9269 220.873 67.9269C218.625 67.9269 217.893 54.1371 217.808 47.2421C217.638 52.3494 216.787 62.5638 214.744 62.5638C212.701 62.5638 211.85 50.9874 211.679 45.1992C211.679 50.9875 211.066 62.5641 208.615 62.5638Z" fill="url(#paint88_radial_518_12027)"/>
<path d="M208.615 62.5638C206.163 62.5635 206.061 46.0499 206.316 37.7931C217.808 30.4393 237.562 37.6914 237.727 37.7931C241.047 39.8356 239.004 57.9676 235.684 57.9676C233.028 57.9676 231.683 50.8173 231.343 47.2421C231.598 52.3494 231.445 62.5638 228.789 62.5638C226.133 62.5638 224.278 52.3494 223.682 47.2421C223.682 54.1371 223.12 67.9269 220.873 67.9269C218.625 67.9269 217.893 54.1371 217.808 47.2421C217.638 52.3494 216.787 62.5638 214.744 62.5638C212.701 62.5638 211.85 50.9874 211.679 45.1992C211.679 50.9875 211.066 62.5641 208.615 62.5638Z" fill="url(#paint89_radial_518_12027)"/>
<path d="M208.615 62.5638C206.163 62.5635 206.061 46.0499 206.316 37.7931C217.808 30.4393 237.562 37.6914 237.727 37.7931C241.047 39.8356 239.004 57.9676 235.684 57.9676C233.028 57.9676 231.683 50.8173 231.343 47.2421C231.598 52.3494 231.445 62.5638 228.789 62.5638C226.133 62.5638 224.278 52.3494 223.682 47.2421C223.682 54.1371 223.12 67.9269 220.873 67.9269C218.625 67.9269 217.893 54.1371 217.808 47.2421C217.638 52.3494 216.787 62.5638 214.744 62.5638C212.701 62.5638 211.85 50.9874 211.679 45.1992C211.679 50.9875 211.066 62.5641 208.615 62.5638Z" fill="url(#paint90_radial_518_12027)"/>
<path d="M208.615 62.5638C206.163 62.5635 206.061 46.0499 206.316 37.7931C217.808 30.4393 237.562 37.6914 237.727 37.7931C241.047 39.8356 239.004 57.9676 235.684 57.9676C233.028 57.9676 231.683 50.8173 231.343 47.2421C231.598 52.3494 231.445 62.5638 228.789 62.5638C226.133 62.5638 224.278 52.3494 223.682 47.2421C223.682 54.1371 223.12 67.9269 220.873 67.9269C218.625 67.9269 217.893 54.1371 217.808 47.2421C217.638 52.3494 216.787 62.5638 214.744 62.5638C212.701 62.5638 211.85 50.9874 211.679 45.1992C211.679 50.9875 211.066 62.5641 208.615 62.5638Z" fill="url(#paint91_radial_518_12027)"/>
<path d="M208.615 62.5638C206.163 62.5635 206.061 46.0499 206.316 37.7931C217.808 30.4393 237.562 37.6914 237.727 37.7931C241.047 39.8356 239.004 57.9676 235.684 57.9676C233.028 57.9676 231.683 50.8173 231.343 47.2421C231.598 52.3494 231.445 62.5638 228.789 62.5638C226.133 62.5638 224.278 52.3494 223.682 47.2421C223.682 54.1371 223.12 67.9269 220.873 67.9269C218.625 67.9269 217.893 54.1371 217.808 47.2421C217.638 52.3494 216.787 62.5638 214.744 62.5638C212.701 62.5638 211.85 50.9874 211.679 45.1992C211.679 50.9875 211.066 62.5641 208.615 62.5638Z" fill="url(#paint92_radial_518_12027)"/>
<defs>
<radialGradient id="paint0_radial_518_12027" cx="0" cy="0" r="1" gradientUnits="userSpaceOnUse" gradientTransform="translate(109.641 87.0536) rotate(167.273) scale(120.267 44.9757)">
<stop stop-color="#FFD88D"/>
<stop offset="1" stop-color="#F7AC67"/>
</radialGradient>
<radialGradient id="paint1_radial_518_12027" cx="0" cy="0" r="1" gradientUnits="userSpaceOnUse" gradientTransform="translate(109.243 87.0536) rotate(167.311) scale(120.621 44.9825)">
<stop stop-color="#FFDFA2"/>
<stop offset="1" stop-color="#F7C171"/>
</radialGradient>
<radialGradient id="paint2_radial_518_12027" cx="0" cy="0" r="1" gradientUnits="userSpaceOnUse" gradientTransform="translate(109.243 87.0536) rotate(167.311) scale(120.621 44.9825)">
<stop stop-color="#C5BAA6"/>
<stop offset="1" stop-color="#AE8B57"/>
</radialGradient>
<radialGradient id="paint3_radial_518_12027" cx="0" cy="0" r="1" gradientUnits="userSpaceOnUse" gradientTransform="translate(118.186 87.0536) rotate(166.401) scale(112.685 44.8159)">
<stop stop-color="#FFD88D"/>
<stop offset="1" stop-color="#F7AC67"/>
</radialGradient>
<radialGradient id="paint4_radial_518_12027" cx="0" cy="0" r="1" gradientUnits="userSpaceOnUse" gradientTransform="translate(118.186 87.0536) rotate(166.401) scale(112.685 44.8159)">
<stop stop-color="#DFBB77"/>
<stop offset="1" stop-color="#B06D2E"/>
</radialGradient>
<linearGradient id="paint5_linear_518_12027" x1="83.6422" y1="12.9833" x2="88.3244" y2="123.602" gradientUnits="userSpaceOnUse">
<stop stop-color="#E4BB6D"/>
<stop offset="1" stop-color="#A7763D"/>
</linearGradient>
<linearGradient id="paint6_linear_518_12027" x1="83.6422" y1="12.9833" x2="88.3244" y2="123.602" gradientUnits="userSpaceOnUse">
<stop stop-color="#E4BB6D"/>
<stop offset="1" stop-color="#755530"/>
</linearGradient>
<linearGradient id="paint7_linear_518_12027" x1="166.103" y1="118.096" x2="166.103" y2="76.5388" gradientUnits="userSpaceOnUse">
<stop stop-color="#0C34A4"/>
<stop offset="1" stop-color="#36A5D2"/>
</linearGradient>
<radialGradient id="paint8_radial_518_12027" cx="0" cy="0" r="1" gradientUnits="userSpaceOnUse" gradientTransform="translate(98.4571 70.4097) rotate(106.382) scale(129.097 98.7838)">
<stop stop-color="#92EBFF" stop-opacity="0.3"/>
<stop offset="1" stop-color="#92EBFF" stop-opacity="0"/>
</radialGradient>
<radialGradient id="paint9_radial_518_12027" cx="0" cy="0" r="1" gradientUnits="userSpaceOnUse" gradientTransform="translate(136.872 106.208) rotate(118.69) scale(22.7361 58.1013)">
<stop offset="0.280265" stop-color="#0035B5"/>
<stop offset="1" stop-color="#0035B5" stop-opacity="0"/>
</radialGradient>
<radialGradient id="paint10_radial_518_12027" cx="0" cy="0" r="1" gradientUnits="userSpaceOnUse" gradientTransform="translate(175.689 71.6886) rotate(151.483) scale(66.6812 48.6787)">
<stop stop-color="#C5BAA6"/>
<stop offset="1" stop-color="#AE8B57"/>
</radialGradient>
<linearGradient id="paint11_linear_518_12027" x1="157.209" y1="-1.21188" x2="168.211" y2="122.427" gradientUnits="userSpaceOnUse">
<stop stop-color="#E4BB6D"/>
<stop offset="1" stop-color="#755530"/>
</linearGradient>
<linearGradient id="paint12_linear_518_12027" x1="146.958" y1="106.548" x2="141.668" y2="129.628" gradientUnits="userSpaceOnUse">
<stop stop-color="#9D7056"/>
<stop offset="1" stop-color="#661800"/>
</linearGradient>
<linearGradient id="paint13_linear_518_12027" x1="140.243" y1="76.5282" x2="140.243" y2="115.968" gradientUnits="userSpaceOnUse">
<stop stop-color="#E08552"/>
<stop offset="1" stop-color="#F5D6A7"/>
</linearGradient>
<radialGradient id="paint14_radial_518_12027" cx="0" cy="0" r="1" gradientUnits="userSpaceOnUse" gradientTransform="translate(115.661 89.5786) rotate(54.7094) scale(46.0547 31.008)">
<stop stop-color="#B07952"/>
<stop offset="1" stop-color="#A96946"/>
</radialGradient>
<radialGradient id="paint15_radial_518_12027" cx="0" cy="0" r="1" gradientUnits="userSpaceOnUse" gradientTransform="translate(139.095 94.2165) rotate(120.838) scale(19.0476 34.6059)">
<stop stop-color="#D88A52"/>
<stop offset="1" stop-color="#D88A52" stop-opacity="0"/>
</radialGradient>
<radialGradient id="paint16_radial_518_12027" cx="0" cy="0" r="1" gradientUnits="userSpaceOnUse" gradientTransform="translate(136.898 99.3426) rotate(29.792) scale(36.8469 4.7047)">
<stop stop-color="#FFC9A2" stop-opacity="0.6"/>
<stop offset="1" stop-color="#FFC9A2" stop-opacity="0"/>
</radialGradient>
<radialGradient id="paint17_radial_518_12027" cx="0" cy="0" r="1" gradientUnits="userSpaceOnUse" gradientTransform="translate(111.755 89.3345) rotate(61.0524) scale(39.063 10.3326)">
<stop offset="0.34375" stop-color="#853F17"/>
<stop offset="1" stop-color="#853F17" stop-opacity="0"/>
</radialGradient>
<linearGradient id="paint18_linear_518_12027" x1="142.534" y1="103.164" x2="142.913" y2="108.075" gradientUnits="userSpaceOnUse">
<stop offset="0.706061" stop-color="#FFC9AB"/>
<stop offset="1" stop-color="#C86204"/>
</linearGradient>
<linearGradient id="paint19_linear_518_12027" x1="116.808" y1="84.3191" x2="117.717" y2="92.3417" gradientUnits="userSpaceOnUse">
<stop offset="0.831088" stop-color="#FFD3AB"/>
<stop offset="1" stop-color="#C84B04"/>
</linearGradient>
<linearGradient id="paint20_linear_518_12027" x1="55.2693" y1="42.627" x2="68.2065" y2="78.6158" gradientUnits="userSpaceOnUse">
<stop stop-color="#9D7B59"/>
<stop offset="1" stop-color="#604B35"/>
</linearGradient>
<radialGradient id="paint21_radial_518_12027" cx="0" cy="0" r="1" gradientUnits="userSpaceOnUse" gradientTransform="translate(73.0828 30.9982) rotate(-9.9857) scale(19.8002 8.7568)">
<stop stop-color="#A0B370"/>
<stop offset="1" stop-color="#4E5C2A"/>
</radialGradient>
<radialGradient id="paint22_radial_518_12027" cx="0" cy="0" r="1" gradientUnits="userSpaceOnUse" gradientTransform="translate(73.6628 38.7313) rotate(89.0122) scale(11.2148 2.26895)">
<stop stop-color="#A0B370"/>
<stop offset="1" stop-color="#A0B270" stop-opacity="0"/>
</radialGradient>
<radialGradient id="paint23_radial_518_12027" cx="0" cy="0" r="1" gradientUnits="userSpaceOnUse" gradientTransform="translate(67.3796 38.248) rotate(84.4084) scale(13.8891 2.81002)">
<stop stop-color="#A0B370"/>
<stop offset="1" stop-color="#A0B270" stop-opacity="0"/>
</radialGradient>
<radialGradient id="paint24_radial_518_12027" cx="0" cy="0" r="1" gradientUnits="userSpaceOnUse" gradientTransform="translate(79.366 37.958) rotate(85.6426) scale(15.2672 3.08883)">
<stop stop-color="#A0B370"/>
<stop offset="1" stop-color="#A0B270" stop-opacity="0"/>
</radialGradient>
<radialGradient id="paint25_radial_518_12027" cx="0" cy="0" r="1" gradientUnits="userSpaceOnUse" gradientTransform="translate(84.9725 37.4747) rotate(86.2605) scale(14.8212 2.9986)">
<stop stop-color="#A0B370"/>
<stop offset="1" stop-color="#A0B270" stop-opacity="0"/>
</radialGradient>
<radialGradient id="paint26_radial_518_12027" cx="0" cy="0" r="1" gradientUnits="userSpaceOnUse" gradientTransform="translate(43.9763 29.3062) rotate(-11.2684) scale(21.525 10.6826)">
<stop stop-color="#A0B370"/>
<stop offset="1" stop-color="#4E5C2A"/>
</radialGradient>
<radialGradient id="paint27_radial_518_12027" cx="0" cy="0" r="1" gradientUnits="userSpaceOnUse" gradientTransform="translate(44.6042 38.7798) rotate(89.1271) scale(13.7383 2.45634)">
<stop stop-color="#A0B370"/>
<stop offset="1" stop-color="#A0B270" stop-opacity="0"/>
</radialGradient>
<radialGradient id="paint28_radial_518_12027" cx="0" cy="0" r="1" gradientUnits="userSpaceOnUse" gradientTransform="translate(37.8023 38.1877) rotate(85.0554) scale(16.9972 3.04516)">
<stop stop-color="#A0B370"/>
<stop offset="1" stop-color="#A0B270" stop-opacity="0"/>
</radialGradient>
<radialGradient id="paint29_radial_518_12027" cx="0" cy="0" r="1" gradientUnits="userSpaceOnUse" gradientTransform="translate(50.7782 37.8324) rotate(86.1478) scale(18.6913 3.34594)">
<stop stop-color="#A0B370"/>
<stop offset="1" stop-color="#A0B270" stop-opacity="0"/>
</radialGradient>
<radialGradient id="paint30_radial_518_12027" cx="0" cy="0" r="1" gradientUnits="userSpaceOnUse" gradientTransform="translate(56.8476 37.2403) rotate(86.6945) scale(18.1484 3.24766)">
<stop stop-color="#A0B370"/>
<stop offset="1" stop-color="#A0B270" stop-opacity="0"/>
</radialGradient>
<linearGradient id="paint31_linear_518_12027" x1="113.107" y1="103.504" x2="110.863" y2="98.9827" gradientUnits="userSpaceOnUse">
<stop stop-color="#A64E1C"/>
<stop offset="1" stop-color="#F99751"/>
</linearGradient>
<linearGradient id="paint32_linear_518_12027" x1="113.107" y1="103.504" x2="110.863" y2="98.9827" gradientUnits="userSpaceOnUse">
<stop stop-color="#FFA34E"/>
<stop offset="1" stop-color="#FFE5D2"/>
</linearGradient>
<linearGradient id="paint33_linear_518_12027" x1="119.383" y1="99.4561" x2="86.9233" y2="114.551" gradientUnits="userSpaceOnUse">
<stop stop-color="#CC7D46"/>
<stop offset="0.831676" stop-color="#FFAB5E"/>
<stop offset="1" stop-color="#FFCDA2"/>
</linearGradient>
<linearGradient id="paint34_linear_518_12027" x1="93.071" y1="106.256" x2="93.4626" y2="107.098" gradientUnits="userSpaceOnUse">
<stop stop-color="#9A451C"/>
<stop offset="1" stop-color="#9A451C" stop-opacity="0"/>
</linearGradient>
<linearGradient id="paint35_linear_518_12027" x1="104.665" y1="102.125" x2="104.389" y2="104.073" gradientUnits="userSpaceOnUse">
<stop stop-color="#6B2605"/>
<stop offset="1" stop-color="#9A451C" stop-opacity="0"/>
</linearGradient>
<linearGradient id="paint36_linear_518_12027" x1="32.0759" y1="55.002" x2="45.0131" y2="90.9908" gradientUnits="userSpaceOnUse">
<stop stop-color="#9D7B59"/>
<stop offset="1" stop-color="#604B35"/>
</linearGradient>
<linearGradient id="paint37_linear_518_12027" x1="202.487" y1="23.7809" x2="215.424" y2="59.7697" gradientUnits="userSpaceOnUse">
<stop stop-color="#9D7B59"/>
<stop offset="1" stop-color="#604B35"/>
</linearGradient>
<linearGradient id="paint38_linear_518_12027" x1="145.085" y1="33.5967" x2="157.139" y2="64.7829" gradientUnits="userSpaceOnUse">
<stop stop-color="#9D7B59"/>
<stop offset="1" stop-color="#604B35"/>
</linearGradient>
<radialGradient id="paint39_radial_518_12027" cx="0" cy="0" r="1" gradientUnits="userSpaceOnUse" gradientTransform="translate(137.211 24.234) rotate(-14.1546) scale(21.5548 8.84418)">
<stop stop-color="#A0B370"/>
<stop offset="1" stop-color="#4E5C2A"/>
</radialGradient>
<radialGradient id="paint40_radial_518_12027" cx="0" cy="0" r="1" gradientUnits="userSpaceOnUse" gradientTransform="translate(132.795 35.9471) rotate(88.3483) scale(14.047 3.09728)">
<stop stop-color="#A0B370"/>
<stop offset="1" stop-color="#A0B270" stop-opacity="0"/>
</radialGradient>
<radialGradient id="paint41_radial_518_12027" cx="0" cy="0" r="1" gradientUnits="userSpaceOnUse" gradientTransform="translate(138.374 34.6731) rotate(85.3667) scale(12.332 2.71153)">
<stop stop-color="#A0B370"/>
<stop offset="1" stop-color="#A0B270" stop-opacity="0"/>
</radialGradient>
<radialGradient id="paint42_radial_518_12027" cx="0" cy="0" r="1" gradientUnits="userSpaceOnUse" gradientTransform="translate(126.447 29.9828) rotate(85.3357) scale(15.3346 3.37158)">
<stop stop-color="#A0B370"/>
<stop offset="1" stop-color="#A0B270" stop-opacity="0"/>
</radialGradient>
<radialGradient id="paint43_radial_518_12027" cx="0" cy="0" r="1" gradientUnits="userSpaceOnUse" gradientTransform="translate(143.247 29.5769) rotate(85.9619) scale(11.7804 2.59223)">
<stop stop-color="#A0B370"/>
<stop offset="1" stop-color="#A0B270" stop-opacity="0"/>
</radialGradient>
<radialGradient id="paint44_radial_518_12027" cx="0" cy="0" r="1" gradientUnits="userSpaceOnUse" gradientTransform="translate(161.373 23.8757) rotate(-10.1078) scale(15.577 6.96978)">
<stop stop-color="#A0B370"/>
<stop offset="1" stop-color="#4E5C2A"/>
</radialGradient>
<radialGradient id="paint45_radial_518_12027" cx="0" cy="0" r="1" gradientUnits="userSpaceOnUse" gradientTransform="translate(161.829 30.0331) rotate(89.0244) scale(8.92947 1.78433)">
<stop stop-color="#A0B370"/>
<stop offset="1" stop-color="#A0B270" stop-opacity="0"/>
</radialGradient>
<radialGradient id="paint46_radial_518_12027" cx="0" cy="0" r="1" gradientUnits="userSpaceOnUse" gradientTransform="translate(156.888 29.6483) rotate(84.4769) scale(11.0576 2.21009)">
<stop stop-color="#A0B370"/>
<stop offset="1" stop-color="#A0B270" stop-opacity="0"/>
</radialGradient>
<radialGradient id="paint47_radial_518_12027" cx="0" cy="0" r="1" gradientUnits="userSpaceOnUse" gradientTransform="translate(166.314 29.4174) rotate(85.6961) scale(12.1553 2.42927)">
<stop stop-color="#A0B370"/>
<stop offset="1" stop-color="#A0B270" stop-opacity="0"/>
</radialGradient>
<radialGradient id="paint48_radial_518_12027" cx="0" cy="0" r="1" gradientUnits="userSpaceOnUse" gradientTransform="translate(170.723 29.0325) rotate(86.3065) scale(11.8005 2.35826)">
<stop stop-color="#A0B370"/>
<stop offset="1" stop-color="#A0B270" stop-opacity="0"/>
</radialGradient>
<radialGradient id="paint49_radial_518_12027" cx="0" cy="0" r="1" gradientUnits="userSpaceOnUse" gradientTransform="translate(24.3617 43.9485) rotate(-16.1786) scale(25.0957 11.6208)">
<stop stop-color="#A0B370"/>
<stop offset="1" stop-color="#4E5C2A"/>
</radialGradient>
<radialGradient id="paint50_radial_518_12027" cx="0" cy="0" r="1" gradientUnits="userSpaceOnUse" gradientTransform="translate(19.2692 59.487) rotate(88.5641) scale(18.6327 3.57206)">
<stop stop-color="#A0B370"/>
<stop offset="1" stop-color="#A0B270" stop-opacity="0"/>
</radialGradient>
<radialGradient id="paint51_radial_518_12027" cx="0" cy="0" r="1" gradientUnits="userSpaceOnUse" gradientTransform="translate(25.7025 57.7969) rotate(85.9702) scale(16.3465 3.12937)">
<stop stop-color="#A0B370"/>
<stop offset="1" stop-color="#A0B270" stop-opacity="0"/>
</radialGradient>
<radialGradient id="paint52_radial_518_12027" cx="0" cy="0" r="1" gradientUnits="userSpaceOnUse" gradientTransform="translate(11.9486 51.5748) rotate(85.9432) scale(20.3263 3.89117)">
<stop stop-color="#A0B370"/>
<stop offset="1" stop-color="#A0B270" stop-opacity="0"/>
</radialGradient>
<radialGradient id="paint53_radial_518_12027" cx="0" cy="0" r="1" gradientUnits="userSpaceOnUse" gradientTransform="translate(31.3229 51.0363) rotate(86.4883) scale(15.6183 2.99111)">
<stop stop-color="#A0B370"/>
<stop offset="1" stop-color="#A0B270" stop-opacity="0"/>
</radialGradient>
<radialGradient id="paint54_radial_518_12027" cx="0" cy="0" r="1" gradientUnits="userSpaceOnUse" gradientTransform="translate(50.3436 42.517) rotate(-9.9857) scale(19.3157 8.54254)">
<stop stop-color="#A0B370"/>
<stop offset="1" stop-color="#4E5C2A"/>
</radialGradient>
<radialGradient id="paint55_radial_518_12027" cx="0" cy="0" r="1" gradientUnits="userSpaceOnUse" gradientTransform="translate(50.9094 50.061) rotate(89.0122) scale(10.9404 2.21343)">
<stop stop-color="#A0B370"/>
<stop offset="1" stop-color="#A0B270" stop-opacity="0"/>
</radialGradient>
<radialGradient id="paint56_radial_518_12027" cx="0" cy="0" r="1" gradientUnits="userSpaceOnUse" gradientTransform="translate(44.78 49.5895) rotate(84.4084) scale(13.5493 2.74126)">
<stop stop-color="#A0B370"/>
<stop offset="1" stop-color="#A0B270" stop-opacity="0"/>
</radialGradient>
<radialGradient id="paint57_radial_518_12027" cx="0" cy="0" r="1" gradientUnits="userSpaceOnUse" gradientTransform="translate(56.4731 49.3066) rotate(85.6426) scale(14.8937 3.01325)">
<stop stop-color="#A0B370"/>
<stop offset="1" stop-color="#A0B270" stop-opacity="0"/>
</radialGradient>
<radialGradient id="paint58_radial_518_12027" cx="0" cy="0" r="1" gradientUnits="userSpaceOnUse" gradientTransform="translate(61.9425 48.8351) rotate(86.2605) scale(14.4586 2.92523)">
<stop stop-color="#A0B370"/>
<stop offset="1" stop-color="#A0B270" stop-opacity="0"/>
</radialGradient>
<linearGradient id="paint59_linear_518_12027" x1="51.191" y1="66.6939" x2="58.8618" y2="86.5396" gradientUnits="userSpaceOnUse">
<stop stop-color="#9D7B59"/>
<stop offset="1" stop-color="#604B35"/>
</linearGradient>
<radialGradient id="paint60_radial_518_12027" cx="0" cy="0" r="1" gradientUnits="userSpaceOnUse" gradientTransform="translate(45.6497 59.982) rotate(-14.0988) scale(17.2663 7.05894)">
<stop stop-color="#A0B370"/>
<stop offset="1" stop-color="#4E5C2A"/>
</radialGradient>
<radialGradient id="paint61_radial_518_12027" cx="0" cy="0" r="1" gradientUnits="userSpaceOnUse" gradientTransform="translate(42.1114 69.3285) rotate(88.3415) scale(11.2088 2.48164)">
<stop stop-color="#A0B370"/>
<stop offset="1" stop-color="#A0B270" stop-opacity="0"/>
</radialGradient>
<radialGradient id="paint62_radial_518_12027" cx="0" cy="0" r="1" gradientUnits="userSpaceOnUse" gradientTransform="translate(46.5813 68.3119) rotate(85.3476) scale(9.84061 2.17252)">
<stop stop-color="#A0B370"/>
<stop offset="1" stop-color="#A0B270" stop-opacity="0"/>
</radialGradient>
<radialGradient id="paint63_radial_518_12027" cx="0" cy="0" r="1" gradientUnits="userSpaceOnUse" gradientTransform="translate(37.025 64.5693) rotate(85.3166) scale(12.2366 2.70136)">
<stop stop-color="#A0B370"/>
<stop offset="1" stop-color="#A0B270" stop-opacity="0"/>
</radialGradient>
<radialGradient id="paint64_radial_518_12027" cx="0" cy="0" r="1" gradientUnits="userSpaceOnUse" gradientTransform="translate(50.4864 64.2454) rotate(85.9453) scale(9.40033 2.07695)">
<stop stop-color="#A0B370"/>
<stop offset="1" stop-color="#A0B270" stop-opacity="0"/>
</radialGradient>
<radialGradient id="paint65_radial_518_12027" cx="0" cy="0" r="1" gradientUnits="userSpaceOnUse" gradientTransform="translate(61.7642 60.3834) rotate(-12.0658) scale(13.9665 7.39357)">
<stop stop-color="#A0B370"/>
<stop offset="1" stop-color="#4E5C2A"/>
</radialGradient>
<radialGradient id="paint66_radial_518_12027" cx="0" cy="0" r="1" gradientUnits="userSpaceOnUse" gradientTransform="translate(62.1704 66.959) rotate(89.1864) scale(9.53565 1.58924)">
<stop stop-color="#A0B370"/>
<stop offset="1" stop-color="#A0B270" stop-opacity="0"/>
</radialGradient>
<radialGradient id="paint67_radial_518_12027" cx="0" cy="0" r="1" gradientUnits="userSpaceOnUse" gradientTransform="translate(57.7697 66.548) rotate(85.3896) scale(11.7921 1.97114)">
<stop stop-color="#A0B370"/>
<stop offset="1" stop-color="#A0B270" stop-opacity="0"/>
</radialGradient>
<radialGradient id="paint68_radial_518_12027" cx="0" cy="0" r="1" gradientUnits="userSpaceOnUse" gradientTransform="translate(66.1649 66.3014) rotate(86.4086) scale(12.9699 2.16542)">
<stop stop-color="#A0B370"/>
<stop offset="1" stop-color="#A0B270" stop-opacity="0"/>
</radialGradient>
<radialGradient id="paint69_radial_518_12027" cx="0" cy="0" r="1" gradientUnits="userSpaceOnUse" gradientTransform="translate(70.0918 65.8905) rotate(86.9184) scale(12.5941 2.10165)">
<stop stop-color="#A0B370"/>
<stop offset="1" stop-color="#A0B270" stop-opacity="0"/>
</radialGradient>
<radialGradient id="paint70_radial_518_12027" cx="0" cy="0" r="1" gradientUnits="userSpaceOnUse" gradientTransform="translate(220.3 12.152) rotate(-9.9857) scale(19.8002 8.7568)">
<stop stop-color="#A0B370"/>
<stop offset="1" stop-color="#4E5C2A"/>
</radialGradient>
<radialGradient id="paint71_radial_518_12027" cx="0" cy="0" r="1" gradientUnits="userSpaceOnUse" gradientTransform="translate(220.88 19.8852) rotate(89.0122) scale(11.2148 2.26895)">
<stop stop-color="#A0B370"/>
<stop offset="1" stop-color="#A0B270" stop-opacity="0"/>
</radialGradient>
<radialGradient id="paint72_radial_518_12027" cx="0" cy="0" r="1" gradientUnits="userSpaceOnUse" gradientTransform="translate(214.597 19.4019) rotate(84.4084) scale(13.8891 2.81002)">
<stop stop-color="#A0B370"/>
<stop offset="1" stop-color="#A0B270" stop-opacity="0"/>
</radialGradient>
<radialGradient id="paint73_radial_518_12027" cx="0" cy="0" r="1" gradientUnits="userSpaceOnUse" gradientTransform="translate(226.583 19.1119) rotate(85.6426) scale(15.2672 3.08883)">
<stop stop-color="#A0B370"/>
<stop offset="1" stop-color="#A0B270" stop-opacity="0"/>
</radialGradient>
<radialGradient id="paint74_radial_518_12027" cx="0" cy="0" r="1" gradientUnits="userSpaceOnUse" gradientTransform="translate(232.19 18.6286) rotate(86.2605) scale(14.8212 2.9986)">
<stop stop-color="#A0B370"/>
<stop offset="1" stop-color="#A0B270" stop-opacity="0"/>
</radialGradient>
<radialGradient id="paint75_radial_518_12027" cx="0" cy="0" r="1" gradientUnits="userSpaceOnUse" gradientTransform="translate(191.194 10.4601) rotate(-11.2684) scale(21.525 10.6826)">
<stop stop-color="#A0B370"/>
<stop offset="1" stop-color="#4E5C2A"/>
</radialGradient>
<radialGradient id="paint76_radial_518_12027" cx="0" cy="0" r="1" gradientUnits="userSpaceOnUse" gradientTransform="translate(191.822 19.9337) rotate(89.1271) scale(13.7383 2.45634)">
<stop stop-color="#A0B370"/>
<stop offset="1" stop-color="#A0B270" stop-opacity="0"/>
</radialGradient>
<radialGradient id="paint77_radial_518_12027" cx="0" cy="0" r="1" gradientUnits="userSpaceOnUse" gradientTransform="translate(185.02 19.3416) rotate(85.0554) scale(16.9972 3.04516)">
<stop stop-color="#A0B370"/>
<stop offset="1" stop-color="#A0B270" stop-opacity="0"/>
</radialGradient>
<radialGradient id="paint78_radial_518_12027" cx="0" cy="0" r="1" gradientUnits="userSpaceOnUse" gradientTransform="translate(197.996 18.9863) rotate(86.1478) scale(18.6913 3.34594)">
<stop stop-color="#A0B370"/>
<stop offset="1" stop-color="#A0B270" stop-opacity="0"/>
</radialGradient>
<radialGradient id="paint79_radial_518_12027" cx="0" cy="0" r="1" gradientUnits="userSpaceOnUse" gradientTransform="translate(204.065 18.3942) rotate(86.6945) scale(18.1484 3.24766)">
<stop stop-color="#A0B370"/>
<stop offset="1" stop-color="#A0B270" stop-opacity="0"/>
</radialGradient>
<linearGradient id="paint80_linear_518_12027" x1="193.898" y1="49.8864" x2="209.602" y2="93.5706" gradientUnits="userSpaceOnUse">
<stop stop-color="#9D7B59"/>
<stop offset="1" stop-color="#604B35"/>
</linearGradient>
<radialGradient id="paint81_radial_518_12027" cx="0" cy="0" r="1" gradientUnits="userSpaceOnUse" gradientTransform="translate(182.43 37.2826) rotate(-17.4227) scale(26.7143 13.2063)">
<stop stop-color="#A0B370"/>
<stop offset="1" stop-color="#4E5C2A"/>
</radialGradient>
<radialGradient id="paint82_radial_518_12027" cx="0" cy="0" r="1" gradientUnits="userSpaceOnUse" gradientTransform="translate(177.044 55.0572) rotate(88.6725) scale(21.3132 3.77777)">
<stop stop-color="#A0B370"/>
<stop offset="1" stop-color="#A0B270" stop-opacity="0"/>
</radialGradient>
<radialGradient id="paint83_radial_518_12027" cx="0" cy="0" r="1" gradientUnits="userSpaceOnUse" gradientTransform="translate(183.848 53.124) rotate(86.2736) scale(18.6923 3.31062)">
<stop stop-color="#A0B370"/>
<stop offset="1" stop-color="#A0B270" stop-opacity="0"/>
</radialGradient>
<radialGradient id="paint84_radial_518_12027" cx="0" cy="0" r="1" gradientUnits="userSpaceOnUse" gradientTransform="translate(169.303 46.0065) rotate(86.2486) scale(23.243 4.11656)">
<stop stop-color="#A0B370"/>
<stop offset="1" stop-color="#A0B270" stop-opacity="0"/>
</radialGradient>
<radialGradient id="paint85_radial_518_12027" cx="0" cy="0" r="1" gradientUnits="userSpaceOnUse" gradientTransform="translate(189.792 45.3904) rotate(86.7529) scale(17.861 3.16408)">
<stop stop-color="#A0B370"/>
<stop offset="1" stop-color="#A0B270" stop-opacity="0"/>
</radialGradient>
<radialGradient id="paint86_radial_518_12027" cx="0" cy="0" r="1" gradientUnits="userSpaceOnUse" gradientTransform="translate(195.862 49.2391) rotate(90.7054) scale(23.4789 4.16199)">
<stop stop-color="#A0B370"/>
<stop offset="1" stop-color="#A0B270" stop-opacity="0"/>
</radialGradient>
<radialGradient id="paint87_radial_518_12027" cx="0" cy="0" r="1" gradientUnits="userSpaceOnUse" gradientTransform="translate(216.386 36.8152) rotate(-9.90558) scale(27.9931 12.2849)">
<stop stop-color="#A0B370"/>
<stop offset="1" stop-color="#4E5C2A"/>
</radialGradient>
<radialGradient id="paint88_radial_518_12027" cx="0" cy="0" r="1" gradientUnits="userSpaceOnUse" gradientTransform="translate(213.824 46.0639) rotate(89.5103) scale(17.7209 3.61483)">
<stop stop-color="#A0B370"/>
<stop offset="1" stop-color="#A0B270" stop-opacity="0"/>
</radialGradient>
<radialGradient id="paint89_radial_518_12027" cx="0" cy="0" r="1" gradientUnits="userSpaceOnUse" gradientTransform="translate(218.974 47.124) rotate(84.5932) scale(20.8957 4.26244)">
<stop stop-color="#A0B370"/>
<stop offset="1" stop-color="#A0B270" stop-opacity="0"/>
</radialGradient>
<radialGradient id="paint90_radial_518_12027" cx="0" cy="0" r="1" gradientUnits="userSpaceOnUse" gradientTransform="translate(207.16 46.0639) rotate(86.8493) scale(16.5336 3.37212)">
<stop stop-color="#A0B370"/>
<stop offset="1" stop-color="#A0B270" stop-opacity="0"/>
</radialGradient>
<radialGradient id="paint91_radial_518_12027" cx="0" cy="0" r="1" gradientUnits="userSpaceOnUse" gradientTransform="translate(226.546 46.6697) rotate(84.3456) scale(15.3718 3.13535)">
<stop stop-color="#A0B370"/>
<stop offset="1" stop-color="#A0B270" stop-opacity="0"/>
</radialGradient>
<radialGradient id="paint92_radial_518_12027" cx="0" cy="0" r="1" gradientUnits="userSpaceOnUse" gradientTransform="translate(234.119 46.0639) rotate(88.172) scale(14.244 4.32421)">
<stop stop-color="#A0B370"/>
<stop offset="1" stop-color="#A0B270" stop-opacity="0"/>
</radialGradient>
</defs>
</svg>
